<svg xmlns="http://www.w3.org/2000/svg" width="31.579" height="31.579" viewBox="0 0 31.579 31.579">
  <path id="Icon_material-language" data-name="Icon material-language" d="M18.774,3A15.789,15.789,0,1,0,34.579,18.789,15.782,15.782,0,0,0,18.774,3Zm10.942,9.474H25.058a24.709,24.709,0,0,0-2.179-5.621A12.678,12.678,0,0,1,29.716,12.474ZM18.789,6.221a22.242,22.242,0,0,1,3.016,6.253H15.774A22.242,22.242,0,0,1,18.789,6.221ZM6.568,21.947a12.351,12.351,0,0,1,0-6.316h5.337a26.077,26.077,0,0,0-.221,3.158,26.077,26.077,0,0,0,.221,3.158Zm1.295,3.158h4.658A24.709,24.709,0,0,0,14.7,30.726,12.611,12.611,0,0,1,7.863,25.105Zm4.658-12.632H7.863A12.611,12.611,0,0,1,14.7,6.853,24.709,24.709,0,0,0,12.521,12.474Zm6.268,18.884a22.242,22.242,0,0,1-3.016-6.253h6.032A22.242,22.242,0,0,1,18.789,31.358Zm3.695-9.411H15.095a23.231,23.231,0,0,1-.253-3.158,23.029,23.029,0,0,1,.253-3.158h7.389a23.029,23.029,0,0,1,.253,3.158A23.231,23.231,0,0,1,22.484,21.947Zm.395,8.779a24.709,24.709,0,0,0,2.179-5.621h4.658a12.678,12.678,0,0,1-6.837,5.621Zm2.795-8.779a26.077,26.077,0,0,0,.221-3.158,26.077,26.077,0,0,0-.221-3.158h5.337a12.351,12.351,0,0,1,0,6.316Z" transform="translate(-3 -3)" fill="#ffaa03"/>
</svg>
