<svg xmlns="http://www.w3.org/2000/svg" width="21.001" height="21.04" viewBox="0 0 21.001 21.04">
  <path id="Icon_feather-phone" data-name="Icon feather-phone" d="M22.667,17.628V20.57a1.961,1.961,0,0,1-2.137,1.961,19.4,19.4,0,0,1-8.461-3.01,19.119,19.119,0,0,1-5.883-5.883,19.4,19.4,0,0,1-3.01-8.5A1.961,1.961,0,0,1,5.127,3H8.068a1.961,1.961,0,0,1,1.961,1.686,12.589,12.589,0,0,0,.686,2.755,1.961,1.961,0,0,1-.441,2.069L9.029,10.755a15.687,15.687,0,0,0,5.883,5.883l1.245-1.245a1.961,1.961,0,0,1,2.069-.441,12.589,12.589,0,0,0,2.755.686A1.961,1.961,0,0,1,22.667,17.628Z" transform="translate(-2.417 -2.25)" fill="none" stroke="#ffaa03" strokeLinecap="round" stroke-linejoin="round" strokeWidth="1.5" />
</svg>