<svg id="Icon_material-photo-camera" data-name="Icon material-photo-camera" xmlns="http://www.w3.org/2000/svg" width="52.857" height="47.571" viewBox="0 0 52.857 47.571">
  <path id="Path_197" data-name="Path 197" d="M30.114,21.657A8.457,8.457,0,1,1,21.657,13.2,8.457,8.457,0,0,1,30.114,21.657Z" transform="translate(4.771 4.771)" fill="#001736"/>
  <path id="Path_198" data-name="Path 198" d="M21.5,3,16.663,8.286H8.286A5.3,5.3,0,0,0,3,13.571V45.285a5.3,5.3,0,0,0,5.286,5.286H50.571a5.3,5.3,0,0,0,5.286-5.286V13.571a5.3,5.3,0,0,0-5.286-5.286H42.193L37.357,3Zm7.929,39.643A13.214,13.214,0,1,1,42.643,29.428,13.219,13.219,0,0,1,29.428,42.643Z" transform="translate(-3 -3)" fill="#001736"/>
</svg>
