<svg id="Group_20" data-name="Group 20" xmlns="http://www.w3.org/2000/svg" width="300.091" height="208.018" viewBox="0 0 300.091 208.018">
  <path id="Path_133" data-name="Path 133" d="M229.63,636.53a51.5,51.5,0,0,0,2.406,14.236c.033.107.069.212.1.319h8.978c-.009-.1-.019-.2-.029-.319-.6-6.882,2.821-48.266,6.948-55.428C247.675,595.918,228.934,614.664,229.63,636.53Z" transform="translate(-199.988 -443.717)" fill="#e6e6e6"/>
  <path id="Path_134" data-name="Path 134" d="M217.154,702.762c.075.107.153.214.233.319h6.735c-.051-.091-.11-.2-.179-.319-1.113-2.008-4.406-8.012-7.463-14.236-3.284-6.688-6.3-13.631-6.045-16.143C210.357,672.95,208.084,690.225,217.154,702.762Z" transform="translate(-186.839 -495.714)" fill="#e6e6e6"/>
  <path id="Path_133-2" data-name="Path 133" d="M567.5,700.616a26.161,26.161,0,0,0,1.222,7.233c.016.054.035.108.053.162h4.561c0-.049-.01-.1-.015-.162-.3-3.5,1.433-24.522,3.53-28.161C576.667,679.983,567.145,689.507,567.5,700.616Z" transform="translate(-428.014 -500.643)" fill="#e6e6e6"/>
  <path id="Path_134-2" data-name="Path 134" d="M561.161,734.266c.038.054.078.109.118.162H564.7l-.091-.162c-.565-1.02-2.238-4.071-3.792-7.233-1.668-3.4-3.2-6.925-3.071-8.2C557.708,719.119,556.553,727.9,561.161,734.266Z" transform="translate(-421.334 -527.06)" fill="#e6e6e6"/>
  <path id="Path_51" data-name="Path 51" d="M321.864,182.157l-11.61,8.258,7.224.774,10.063-8.515Z" transform="translate(-209.382 -122.217)" fill="#3f3d56"/>
  <path id="Path_52" data-name="Path 52" d="M206.25,559.935h6.983L216.555,533H206.249Z" transform="translate(-139.192 -358.992)" fill="#9f616a"/>
  <path id="Path_53" data-name="Path 53" d="M339.274,740.03h13.753a8.764,8.764,0,0,1,8.764,8.763v.285H339.274Z" transform="translate(-273.997 -541.366)" fill="#2f2e41"/>
  <path id="Path_54" data-name="Path 54" d="M329.37,451.143s-3.026,3.421,1.985,16.757l-.883,73.121,16.24-.317,3.57-35.668,6.5-52.05Z" transform="translate(-266.702 -346.404)" fill="#2f2e41"/>
  <path id="Path_55" data-name="Path 55" d="M272.165,291.824a3.688,3.688,0,0,1-3.677-3.59l-.762-28.721,13.04-24.74a3.71,3.71,0,0,1,3.026-1.961l9.938-.638-.858,57.893-20.384,1.742Q272.326,291.824,272.165,291.824Z" transform="translate(-225.711 -198.628)" fill="#001736"/>
  <path id="Path_56" data-name="Path 56" d="M355.928,300.358l-.178-.027c-20.776-3.169-36.453-6.206-36.609-6.236l-.195-.038,5.446-13.246c-.043-1.384-1.222-40.253,1.035-51.421,2.185-10.811,12.483-12.582,13.656-12.749l1.178-3.9,14.887,7.746,2.6,8.936.527,24.491Z" transform="translate(-260.278 -185.51)" fill="#3f3d56"/>
  <path id="Path_57" data-name="Path 57" d="M333.662,271.691c-9.591,0-17.394-10.428-17.394-23.247s7.8-23.246,17.394-23.246,17.394,10.428,17.394,23.246S343.253,271.691,333.662,271.691Zm0-44.217c-8.336,0-15.118,9.407-15.118,20.971s6.782,20.971,15.118,20.971,15.118-9.407,15.118-20.971S342,227.474,333.662,227.474Z" transform="translate(-258.471 -193.92)" fill="#ec2b40"/>
  <path id="Path_58" data-name="Path 58" d="M381.9,327.2a4.859,4.859,0,0,0-3.57,1.562H353.3l-9.165,1.951,1.5,11.607,32.6-7.012A4.875,4.875,0,1,0,381.9,327.2Z" transform="translate(-277.281 -262.757)" fill="#9f616a"/>
  <circle id="Ellipse_8" data-name="Ellipse 8" cx="12.059" cy="12.059" r="12.059" transform="translate(77.197 17.054) rotate(-45)" fill="#9f616a"/>
  <path id="Path_59" data-name="Path 59" d="M387.271,137.9l-.585-1.177,2.942-1.462s3.245-5.28,9.117-3.8,8.514,2.372,8.514,2.372l2.934,1.476-1.473,1.465,2.642.888-1.765.877,2.054,1.18-1.105,6.051s-1.836-4.59-5.366-2.836-9.987-.907-9.987-.907l-5.61,10.856s-1.157-3.806-3.221-2.791C386.363,150.094,381.092,141.7,387.271,137.9Z" transform="translate(-304.362 -130.482)" fill="#2f2e41"/>
  <path id="Path_60" data-name="Path 60" d="M655.3,351.306l-.515-9.667-5.2-4.227-3.014,8.952-16.855,22.48a4.224,4.224,0,1,0,4.893,4.169c0-.057-.006-.112-.008-.168Z" transform="translate(-467.607 -269.65)" fill="#ffb7b7"/>
  <path id="Path_61" data-name="Path 61" d="M595.893,591.773h-3.986l-1.9-15.375h5.883Z" transform="translate(-398.183 -388.28)" fill="#ffb7b7"/>
  <path id="Path_62" data-name="Path 62" d="M723.052,756.046H710.2v-.163a5,5,0,0,1,5-5h7.851Z" transform="translate(-524.325 -548.689)" fill="#2f2e41"/>
  <path id="Path_63" data-name="Path 63" d="M652.893,591.773h-3.986l-1.9-15.375h5.883Z" transform="translate(-436.651 -388.28)" fill="#ffb7b7"/>
  <path id="Path_64" data-name="Path 64" d="M780.052,756.046H767.2v-.163a5,5,0,0,1,5-5h7.85Z" transform="translate(-562.793 -548.689)" fill="#2f2e41"/>
  <path id="Path_65" data-name="Path 65" d="M737.03,201.515c1.688-6.968,3.117-14.827-.065-21.244-2.208-4.453-10.377-5.952-15.06-4.348s-8.069,5.956-9.558,10.7-1.316,9.859-.667,14.792C720.292,201.25,728.9,201.084,737.03,201.515Z" transform="translate(-525.001 -160.243)" fill="#2f2e41"/>
  <circle id="Ellipse_9" data-name="Ellipse 9" cx="10.043" cy="10.043" r="10.043" transform="translate(183.865 27.231) rotate(-28.663)" fill="#ffb8b8"/>
  <path id="Path_66" data-name="Path 66" d="M731.341,192a12.614,12.614,0,1,0-25.214.332C714.724,192.347,723.32,192.365,731.341,192Z" transform="translate(-521.568 -162.839)" fill="#2f2e41"/>
  <path id="Path_67" data-name="Path 67" d="M694.24,405.786s-1.634,23.738-.747,30.979,10.544,70.547,10.544,70.547l7.284-.013,2.163-74.6,8.614,75.327,7.533-.783,4.273-73.683s-.67-27.586-6.117-30.352Z" transform="translate(-512.872 -314.052)" fill="#2f2e41"/>
  <path id="Path_68" data-name="Path 68" d="M699.337,340.352a33.67,33.67,0,0,1-15.382-3.725l-.1-.053,4.026-26.716-.261-31.841a6.582,6.582,0,0,1,6.642-6.636l21.6.2a6.972,6.972,0,0,1,6.886,7.522l-2.022,25.526,6.686,20.718-1.162,1.545A33.638,33.638,0,0,1,699.337,340.352Z" transform="translate(-506.544 -225.088)" fill="#3f3d56"/>
  <path id="Path_69" data-name="Path 69" d="M688.755,299.964l2.264-23.1.728-1.035a6.582,6.582,0,0,1,9.193-1.584l.624.442-.616,23.411Z" transform="translate(-509.853 -226.201)" fill="#3f3d56"/>
  <path id="Path_70" data-name="Path 70" d="M967.182,702.6c5.853-1.617,8.35,7.271,2.512,8.939C963.842,713.153,961.344,704.266,967.182,702.6Z" transform="translate(-695.514 -515.972)" fill="#3f3d56"/>
  <path id="Path_71" data-name="Path 71" d="M867.374,737.781c5.853-1.617,8.35,7.271,2.512,8.939C864.034,748.337,861.537,739.449,867.374,737.781Z" transform="translate(-628.156 -539.717)" fill="#3f3d56"/>
  <path id="Path_72" data-name="Path 72" d="M811.136,442.351l.09-.025L826.3,483.253l1.987-.559-15.183-41.221h0a2.788,2.788,0,0,0-2.332-2.607c-7.539-1.192-10.595,5.5-10.595,5.5l.03.044,15.412,41.843,1.987-.559L802.65,445.084C807.2,440.58,811.136,442.351,811.136,442.351Z" transform="translate(-585.05 -338.024)" fill="#3f3d56"/>
  <path id="Path_73" data-name="Path 73" d="M844.923,615.425a10.1,10.1,0,0,1-9.575-7.164c-2.877-9.417-9.666-31.981-10.565-38.1-1.171-7.973,5.428-10.24,5.575-10.289.178-.06,2.831-.8,6.5-1.83,6.242-1.747,15.675-4.387,16.022-4.543a11.237,11.237,0,0,1,8.966.693,11.735,11.735,0,0,1,5.828,7.19l9.71,34.546a9.339,9.339,0,0,1-4.95,10.964c-7.492,3.6-18.481,8.4-27.367,8.537Z" transform="translate(-601.561 -415.059)" fill="#001736"/>
  <path id="Path_74" data-name="Path 74" d="M801.305,366.366l-4.881-28.513-.545-9.623-7.891,2.585,6.655,37.335a4.225,4.225,0,1,0,6.662-1.785Z" transform="translate(-576.823 -263.453)" fill="#ffb7b7"/>
  <path id="Path_75" data-name="Path 75" d="M786.468,298.65l-12.317-.67-2.894-23.24.282-.244a6.972,6.972,0,0,1,9.855.721l.57.663.008.042Z" transform="translate(-565.532 -226.039)" fill="#3f3d56"/>
  <path id="Path_76" data-name="Path 76" d="M745.864,480.178l-12.589-42.608-29.6,8.366-.177-.626,30.221-8.541.091.308,12.68,42.917Z" transform="translate(-474.771 -294.048)" fill="#3f3d56"/>
  <path id="Path_77" data-name="Path 77" d="M142.986,158.661l-1.34-29.229,13.731-26.84.579.3L142.3,129.574l1.332,29.057Z" transform="translate(-95.593 -68.52)" fill="#3f3d56"/>
  <path id="Path_78" data-name="Path 78" d="M438.266,767.452H138.825a.325.325,0,0,1,0-.65H438.266a.325.325,0,1,1,0,.65Z" transform="translate(-138.5 -559.434)" fill="#ccc"/>
  <path id="Path_79" data-name="Path 79" d="M341.885,278.892l-2.861-8.512-.692-28.373,1.219-4.026a11.247,11.247,0,1,1,21.242,7.349l-6.535,16.746.332.645,14.158-.115,5.029,9.052Z" transform="translate(-273.361 -197.156)" fill="#3f3d56"/>
  <path id="Path_80" data-name="Path 80" d="M541.5,480.925l-.01,0-15.692,3.141-13.5,5.436a1.433,1.433,0,0,1-1.864-.794q-.025-.062-.044-.125l-9.861-33.021a1.426,1.426,0,0,1,.838-1.739l13.746-5.536.01,0,15.692-3.141,13.5-5.436a1.433,1.433,0,0,1,1.864.794q.025.062.044.125l9.861,33.02a1.426,1.426,0,0,1-.838,1.739Z" transform="translate(-382.78 -338.619)" fill="#e5e5e5"/>
  <path id="Path_81" data-name="Path 81" d="M533.65,482.179c-3.6-1.27-7.318-2.382-11.054-3.306l-.188-.046,1.9,6.351,9.664-2.886Zm-9.2,2.725-1.723-5.77c3.556.885,7.095,1.941,10.527,3.141Zm28.052,5.861q-2.513-1.421-5.1-2.721-.713-.359-1.43-.708-4.377-2.129-8.888-3.882l-.035-.014-12.183,3.638,3.327,11.14,24.532-7.326Zm-24.158,7.179-3.2-10.718,11.9-3.554q4.35,1.692,8.6,3.747.738.357,1.471.724,2.56,1.282,5.054,2.685Zm24.158-7.18q-2.513-1.421-5.1-2.721-.713-.359-1.43-.708-4.377-2.129-8.888-3.882l-.035-.014-12.183,3.638,3.327,11.14,24.532-7.326Zm-24.158,7.18-3.2-10.718,11.9-3.554q4.35,1.692,8.6,3.747.738.357,1.471.724,2.56,1.282,5.054,2.685Zm5.3-15.765c-3.6-1.27-7.318-2.382-11.054-3.306l-.188-.046,1.9,6.351,9.664-2.886Zm-9.2,2.725-1.723-5.77c3.556.885,7.095,1.941,10.527,3.141Zm9.2-2.725c-3.6-1.27-7.318-2.382-11.054-3.306l-.188-.046,1.9,6.351,9.664-2.886Zm-9.2,2.725-1.723-5.77c3.556.885,7.095,1.941,10.527,3.141Zm28.052,5.861q-2.513-1.421-5.1-2.721-.713-.359-1.43-.708-4.377-2.129-8.888-3.882l-.035-.014-12.183,3.638,3.327,11.14,24.532-7.326Zm-24.158,7.18-3.2-10.718,11.9-3.554q4.35,1.692,8.6,3.747.738.357,1.471.724,2.56,1.282,5.054,2.685Zm-10.033,5.3.063.211,8.341-2.491.914,3.062-8.341,2.491.063.211,8.552-2.554-1.041-3.485Zm12.061,2.264.639,2.14.205-.083-.57-1.909,32.523-9.713-.063-.211Zm31.189-14.95-.063-.211-32.734,9.776,1.041,3.485,32.734-9.776-.063-.211-32.523,9.713-.915-3.062Zm-24.311-9.474a107.535,107.535,0,0,0-15.319-4.611l-.639-2.138-.205.083.644,2.155.216.13a107.319,107.319,0,0,1,15.26,4.6l.035.014L557.04,475.4l-.063-.211ZM522.131,485.6l-8.341,2.491.063.211,8.552-2.554-3.162-10.588-.205.083Zm35.477-8.295-17.4,5.2.283.119q4,1.685,7.986,3.724.566.29,1.131.587,2.811,1.477,5.579,3.117l.2.051,5.544-1.656-.063-.211-5.53,1.652q-2.738-1.625-5.528-3.093-.558-.294-1.117-.581-3.9-2-7.839-3.674l16.813-5.021Zm-37.684,31.324.063.211,8.341-2.491.635,2.125.205-.083-.692-2.316Zm-5.5-18.426.063.211,8.341-2.491,3.2,10.718-8.341,2.491.063.211,8.552-2.554-3.327-11.14Zm19.229-8.021c-3.6-1.27-7.318-2.382-11.054-3.306l-.187-.046,1.9,6.351,9.664-2.886Zm-9.2,2.725-1.723-5.77c3.556.885,7.095,1.941,10.527,3.141Zm28.052,5.861q-2.513-1.421-5.1-2.721-.713-.359-1.43-.708-4.377-2.129-8.888-3.882l-.035-.014-12.183,3.638,3.327,11.14,24.532-7.326Zm-24.158,7.179-3.2-10.718,11.9-3.554q4.35,1.692,8.6,3.747.738.357,1.471.724,2.56,1.282,5.054,2.685Zm5.3-15.765c-3.6-1.27-7.318-2.382-11.054-3.306l-.188-.046,1.9,6.351,9.664-2.886Zm-9.2,2.725-1.723-5.77c3.556.885,7.095,1.941,10.527,3.141Zm28.052,5.861q-2.513-1.421-5.1-2.721-.713-.359-1.43-.708-4.377-2.129-8.888-3.882l-.035-.014-12.183,3.638,3.327,11.14,24.532-7.326Zm-24.158,7.18-3.2-10.718,11.9-3.554q4.35,1.692,8.6,3.747.738.357,1.471.724,2.56,1.282,5.054,2.685Z" transform="translate(-391.774 -362.053)" fill="#fff"/>
  <path id="Path_82" data-name="Path 82" d="M562.949,494.038c.8,2.674-2.264,10.078-2.264,10.078s-6.621-4.511-7.42-7.186a5.053,5.053,0,0,1,9.684-2.892Z" transform="translate(-418.271 -372.918)" fill="#001736"/>
  <path id="Path_83" data-name="Path 83" d="M565.824,499.871a2.31,2.31,0,1,1-2.875-1.552,2.31,2.31,0,0,1,2.875,1.552Z" transform="translate(-423.836 -378.176)" fill="#fff"/>
  <circle id="Ellipse_10" data-name="Ellipse 10" cx="1.362" cy="1.362" r="1.362" transform="translate(141.706 132.026)" fill="#001736"/>
  <path id="Path_84" data-name="Path 84" d="M604.531,470.652l-9.467,2.827a.21.21,0,0,1-.036.008l2.161-9.093a.327.327,0,0,1,.546-.163l4.559,4.307.218.206Z" transform="translate(-446.599 -355.176)" fill="#fff"/>
  <path id="Path_85" data-name="Path 85" d="M479.048,348.585l-3.232.965.9-2.779.064-.2.033-.1.218.206Z" transform="translate(-321.116 -233.108)" opacity="0.2"/>
  <path id="Path_86" data-name="Path 86" d="M623.475,470.136l-8.189,2.445.9-2.779.065-.2,1.171-3.621a.437.437,0,0,1,.61-.223.394.394,0,0,1,.041.028Z" transform="translate(-460.271 -356.233)" fill="#fff"/>
</svg>
