<svg id="Group_16" data-name="Group 16" xmlns="http://www.w3.org/2000/svg" width="214.409" height="183.54" viewBox="0 0 214.409 183.54">
  <path id="Path_27" data-name="Path 27" d="M374.76,604.7a13.892,13.892,0,0,0,4.984-11.975,11.23,11.23,0,0,0-8.349-9.534c-4.4-.95-9.426,1.679-10.764,5.982-.736-8.3-1.585-16.94-6-24a25.422,25.422,0,0,0-18.408-11.793,22.809,22.809,0,0,0-20.065,8.191,20.7,20.7,0,0,0-2.546,21.313c2.412,5,6.856,8.729,11.513,11.759a74.3,74.3,0,0,0,50.819,11.117" transform="translate(-311.75 -423.079)" fill="#f2f2f2"/>
  <path id="Path_28" data-name="Path 28" d="M341.456,559.886A122.6,122.6,0,0,1,377.48,608.6c.344.842-1.024,1.209-1.363.376a121.343,121.343,0,0,0-35.661-48.088c-.706-.575.3-1.57,1-1Z" transform="translate(-329.629 -427.141)" fill="#fff"/>
  <path id="Path_29" data-name="Path 29" d="M479,604.7a13.892,13.892,0,0,1-4.984-11.975,11.23,11.23,0,0,1,8.349-9.534c4.4-.95,9.426,1.679,10.764,5.982.736-8.3,1.585-16.94,6-24a25.422,25.422,0,0,1,18.408-11.793A22.809,22.809,0,0,1,537.6,561.57a20.7,20.7,0,0,1,2.546,21.313c-2.412,5-6.856,8.729-11.513,11.759a74.3,74.3,0,0,1-50.819,11.117" transform="translate(-413.612 -423.079)" fill="#f2f2f2"/>
  <path id="Path_30" data-name="Path 30" d="M564.256,559.886A122.6,122.6,0,0,0,528.232,608.6c-.344.842,1.024,1.209,1.364.376a121.239,121.239,0,0,1,35.661-48.088c.706-.575-.3-1.57-1-1Z" transform="translate(-447.684 -427.141)" fill="#fff"/>
  <circle id="Ellipse_6" data-name="Ellipse 6" cx="11.529" cy="11.529" r="11.529" transform="translate(64.073 59.506)" fill="#f2f2f2"/>
  <path id="Path_31" data-name="Path 31" d="M367.052,287.388h79.434v4.346H377.192a31.025,31.025,0,0,0-31.025,31.025v49.375h-8.692a1.449,1.449,0,0,1-1.449-1.449V318.412a31.024,31.024,0,0,1,31.025-31.024Z" transform="translate(-326.998 -256.096)" fill="#f2f2f2"/>
  <path id="Path_32" data-name="Path 32" d="M460.527,580.765V514.75h19.34v66.015a1.676,1.676,0,0,1-1.674,1.674H462.2a1.676,1.676,0,0,1-1.674-1.674Z" transform="translate(-405.195 -398.899)" fill="#3f3d56"/>
  <path id="Path_33" data-name="Path 33" d="M325.027,366.162v-53.68a32.269,32.269,0,0,1,32.232-32.232H439.2v87.772H326.887a1.862,1.862,0,0,1-1.86-1.86Zm113.434-85.168h-81.2a31.524,31.524,0,0,0-31.488,31.488v53.68a1.117,1.117,0,0,0,1.116,1.116H438.461Z" transform="translate(-320.089 -251.613)" fill="#3f3d56"/>
  <path id="Path_34" data-name="Path 34" d="M454.731,280.236a6.7,6.7,0,0,1-6.695-6.694V225.565a1.117,1.117,0,0,0-1.116-1.116H420.887a1.862,1.862,0,0,1-1.86-1.86V205.11a1.862,1.862,0,0,1,1.86-1.86h38.679a1.862,1.862,0,0,1,1.86,1.86v68.432A6.7,6.7,0,0,1,454.731,280.236Z" transform="translate(-379.129 -203.25)" fill="#001736"/>
  <path id="Path_35" data-name="Path 35" d="M604.226,278.25h0a21.155,21.155,0,0,1,21.2,21.11V360.47H667.08a6.309,6.309,0,0,1,6.323,6.3H583.027V299.36a21.155,21.155,0,0,1,21.2-21.11Z" transform="translate(-482.135 -250.356)" fill="#3f3d56"/>
  <path id="Path_36" data-name="Path 36" d="M626.284,291.3l4.39,18.133,85.868-20.787-4.39-18.133a1.353,1.353,0,0,0-.877-.965,1.337,1.337,0,0,0-.5-.075l-49.636-25.7a1.369,1.369,0,0,0-1.732.416L635.491,277.55l-9.018,12.579a.191.191,0,0,0-.033.156A1.355,1.355,0,0,0,626.284,291.3Z" transform="translate(-509.28 -228.609)" fill="#fff"/>
  <path id="Path_37" data-name="Path 37" d="M626.758,290.284a.182.182,0,0,0,.076.117.208.208,0,0,0,.161.032.2.2,0,0,0,.111-.077l.031-.043.47-.657,8.528-11.888,23.914-33.351a.974.974,0,0,1,1.235-.3l49.251,25.5.442.229a.481.481,0,0,0,.055.019.6.6,0,0,1,.1-.01.191.191,0,0,0,.108-.091.195.195,0,0,0-.081-.264l-.061-.032-49.635-25.7a1.369,1.369,0,0,0-1.732.416L635.81,277.55l-9.018,12.579a.191.191,0,0,0-.033.155Z" transform="translate(-509.599 -228.609)" fill="#3f3d56"/>
  <path id="Path_38" data-name="Path 38" d="M693.619,279.965l1.911.212,14.186,1.571,9.4,1.041.556.062,11.735-9.166.45-.351,2.772-2.165,9.861-7.7.059-.541,3.507-31.655a1.657,1.657,0,0,0-1.461-1.827l-46.807-5.185a1.657,1.657,0,0,0-1.827,1.461l-2.473,22.329-1.372,12.379-1.227,11.075-.569,5.143-.166,1.49A1.658,1.658,0,0,0,693.619,279.965Z" transform="translate(-550.671 -216.441)" fill="#e6e6e6"/>
  <path id="Path_39" data-name="Path 39" d="M727.036,291.254l20.276,2.246,7.19.8a2.432,2.432,0,1,0,.536-4.835l-8.943-.99-18.521-2.054a2.433,2.433,0,0,0-.537,4.837Z" transform="translate(-571.225 -255.476)" fill="#fff"/>
  <path id="Path_40" data-name="Path 40" d="M724.2,315.413c.052.009.1.019.158.024l23.537,2.607,3.93.436a2.433,2.433,0,0,0,.535-4.837l-5.682-.629-18.644-2.066-3.138-.348a2.432,2.432,0,0,0-.7,4.811Z" transform="translate(-569.543 -270.666)" fill="#fff"/>
  <path id="Path_41" data-name="Path 41" d="M719.835,338.718a2.432,2.432,0,0,0,1.815,1.162l9.647,1.068,17.181,1.9h0l.549.061,2.772-2.165a2.41,2.41,0,0,0,0-.495,2.438,2.438,0,0,0-2.152-2.166l-2.387-.265-9.468-1.048-6.812-.756-8.8-.975a2.432,2.432,0,0,0-2.35,3.674Z" transform="translate(-567.842 -286.018)" fill="#fff"/>
  <path id="Path_42" data-name="Path 42" d="M753.2,261.779l5.045.559,2.228.247,3.366.372a2.433,2.433,0,0,0,.535-4.837l-10.636-1.177a2.433,2.433,0,1,0-.537,4.835Z" transform="translate(-587.662 -236.965)" fill="#fff"/>
  <path id="Path_43" data-name="Path 43" d="M645.865,284.02l6.151,25.407,10.265,1.952,9.5,1.808,10.188,1.939,3.255.62a1.366,1.366,0,0,0,1.093-.265l2.612-2.04,1.654-1.291,11.735-9.166-7.461-30.822a1.637,1.637,0,0,0-.463-.8,1.654,1.654,0,0,0-1.534-.416l-45.772,11.08A1.655,1.655,0,0,0,645.865,284.02Z" transform="translate(-521.573 -245.738)" fill="#001736"/>
  <path id="Path_44" data-name="Path 44" d="M683.749,344.473a2.435,2.435,0,0,0,2.937,1.792l26.858-6.5a2.436,2.436,0,0,0,1.792-2.937.8.8,0,0,0-.026-.092,2.432,2.432,0,0,0-2.91-1.7l-26.858,6.5A2.435,2.435,0,0,0,683.749,344.473Z" transform="translate(-545.354 -285.979)" fill="#fff"/>
  <path id="Path_45" data-name="Path 45" d="M690.082,366.472l9.5,1.808,20.115-4.869a2.433,2.433,0,1,0-1.145-4.728l-26.858,6.5a2.415,2.415,0,0,0-1.394.934A2.442,2.442,0,0,0,690.082,366.472Z" transform="translate(-549.375 -300.831)" fill="#fff"/>
  <path id="Path_46" data-name="Path 46" d="M743.008,386.972l3.255.619a1.366,1.366,0,0,0,1.093-.265l2.612-2.04Z" transform="translate(-582.617 -317.584)" fill="#fff"/>
  <path id="Path_47" data-name="Path 47" d="M698.3,314.57a2.435,2.435,0,0,0,2.937,1.792l10.4-2.518a2.436,2.436,0,0,0,1.792-2.937,2.4,2.4,0,0,0-.448-.925,2.434,2.434,0,0,0-2.488-.867l-10.4,2.518a2.433,2.433,0,0,0-1.792,2.937Z" transform="translate(-554.492 -269.7)" fill="#fff"/>
  <path id="Path_48" data-name="Path 48" d="M659.483,339.71l10.19,1.939,3.254.62a1.372,1.372,0,0,0,1.093-.265l2.614-2.04-.917.222-1.936,1.51a.98.98,0,0,1-.781.189l-2.41-.458-10.19-1.939ZM689.919,329.1l.1.41.452-.351ZM659.483,339.71l10.19,1.939,3.254.62a1.372,1.372,0,0,0,1.093-.265l2.614-2.04-.917.222-1.936,1.51a.98.98,0,0,1-.781.189l-2.41-.458-10.19-1.939Zm0,0,10.19,1.939,3.254.62a1.372,1.372,0,0,0,1.093-.265l2.614-2.04-.917.222-1.936,1.51a.98.98,0,0,1-.781.189l-2.41-.458-10.19-1.939Zm-33.2-4.756,11.5,47.5a1.364,1.364,0,0,0,1.645,1l83.22-20.146a1.364,1.364,0,0,0,1-1.645l-11.5-47.5a1.353,1.353,0,0,0-.877-.965,1.337,1.337,0,0,0-.5-.075,1.286,1.286,0,0,0-.563.148,1.187,1.187,0,0,0-.226.14l-6.83,5.333-9.919,7.748-3.323,2.6v0h0L677.73,338.61l-2.015,1.577-1.936,1.51a.981.981,0,0,1-.781.189l-2.41-.458-10.19-1.939-10.2-1.94L627.863,333.3a1.336,1.336,0,0,0-.576.012,1.365,1.365,0,0,0-.665.385,1.529,1.529,0,0,0-.183.242,1.355,1.355,0,0,0-.155,1.017Zm33.2,4.756,10.19,1.939,3.254.62a1.372,1.372,0,0,0,1.093-.265l2.614-2.04-.917.222-1.936,1.51a.98.98,0,0,1-.781.189l-2.41-.458-10.19-1.939Zm0,0,10.19,1.939,3.254.62a1.372,1.372,0,0,0,1.093-.265l2.614-2.04-.917.222-1.936,1.51a.98.98,0,0,1-.781.189l-2.41-.458-10.19-1.939Zm0,0,10.19,1.939,3.254.62a1.372,1.372,0,0,0,1.093-.265l2.614-2.04-.917.222-1.936,1.51a.98.98,0,0,1-.781.189l-2.41-.458-10.19-1.939Z" transform="translate(-509.28 -272.262)" fill="#fff"/>
  <path id="Path_49" data-name="Path 49" d="M659.483,339.711l10.19,1.939,3.254.62a1.372,1.372,0,0,0,1.093-.265l2.614-2.04-.917.222-1.936,1.51a.98.98,0,0,1-.781.189l-2.41-.458-10.19-1.939ZM689.919,329.1l.1.41.452-.351Zm-30.437,10.614,10.19,1.939,3.254.62a1.372,1.372,0,0,0,1.093-.265l2.614-2.04-.917.222-1.936,1.51a.98.98,0,0,1-.781.189l-2.41-.458-10.19-1.939Zm0,0,10.19,1.939,3.254.62a1.372,1.372,0,0,0,1.093-.265l2.614-2.04-.917.222-1.936,1.51a.98.98,0,0,1-.781.189l-2.41-.458-10.19-1.939Zm-32.664-5.743.051.038c.008-.014.023-.026.034-.041a.983.983,0,0,1,.887-.286l22.2,4.223,9.494,1.809,10.19,1.939,3.254.62a1.372,1.372,0,0,0,1.093-.265l2.613-2.04-.917.222-1.936,1.51a.98.98,0,0,1-.781.189l-2.41-.458-10.19-1.939-10.2-1.94L627.863,333.3a1.334,1.334,0,0,0-.576.012Zm-.534.988,11.5,47.5a1.364,1.364,0,0,0,1.645,1l83.22-20.146a1.364,1.364,0,0,0,1-1.645l-11.5-47.5a1.353,1.353,0,0,0-.877-.965,1.336,1.336,0,0,0-.5-.075,1.286,1.286,0,0,0-.563.148,1.183,1.183,0,0,0-.226.14l-6.83,5.333-9.919,7.748-3.323,2.6v0h0l-12.186,9.513-2.015,1.577-1.936,1.51a.98.98,0,0,1-.781.189l-2.41-.458-10.19-1.939-10.2-1.94L627.863,333.3a1.334,1.334,0,0,0-.576.012,1.364,1.364,0,0,0-.665.385,1.524,1.524,0,0,0-.183.242,1.355,1.355,0,0,0-.155,1.017Zm.379-.092a.966.966,0,0,1,.172-.815.125.125,0,0,1,.034-.044c.009-.014.023-.026.034-.041a.983.983,0,0,1,.887-.286l22.2,4.223,9.494,1.809,10.19,1.939,3.254.62a1.372,1.372,0,0,0,1.093-.264l2.613-2.04,1.653-1.291,11.733-9.167.452-.351,2.769-2.164,9.862-7.7,7.13-5.568a.967.967,0,0,1,.367-.177.74.74,0,0,1,.114-.019.6.6,0,0,1,.1-.01,1,1,0,0,1,.335.055.976.976,0,0,1,.627.689l11.5,47.5a.974.974,0,0,1-.718,1.177l-83.22,20.146a.974.974,0,0,1-1.174-.719Zm32.819,4.847,10.19,1.939,3.254.62a1.372,1.372,0,0,0,1.093-.264l2.613-2.04-.917.222-1.936,1.51a.98.98,0,0,1-.781.189l-2.41-.458-10.19-1.939Zm0,0,10.19,1.939,3.254.62a1.372,1.372,0,0,0,1.093-.264l2.613-2.04-.917.222-1.936,1.51a.98.98,0,0,1-.781.189l-2.41-.458-10.19-1.939Zm0,0,10.19,1.939,3.254.62a1.372,1.372,0,0,0,1.093-.264l2.613-2.04-.917.222-1.936,1.51a.98.98,0,0,1-.781.189l-2.41-.458-10.19-1.939Z" transform="translate(-509.28 -272.262)" fill="#3f3d56"/>
  <path id="Path_50" data-name="Path 50" d="M826.986,412.373a3.023,3.023,0,0,1,2.224-3.645l10.5-2.543a3.02,3.02,0,0,1,1.421,5.87l-10.5,2.543A3.023,3.023,0,0,1,826.986,412.373Z" transform="translate(-635.309 -330.657)" fill="#001736"/>
  <circle id="Ellipse_7" data-name="Ellipse 7" cx="2.603" cy="2.603" r="2.603" transform="translate(72.999 67.688)" fill="#fff"/>
</svg>
