<svg xmlns="http://www.w3.org/2000/svg" width="269.247" height="208.018" viewBox="0 0 269.247 208.018">
  <g id="Group_14" data-name="Group 14" transform="translate(0 0)">
    <path id="Path_5" data-name="Path 5" d="M947.734,650.251c-1.069-8.6-6.4-17.069-14.6-19.867a39.918,39.918,0,0,1,0,27.406c-1.26,3.408-3.016,7.068-1.831,10.5a8.923,8.923,0,0,0,4.558,4.795,26.5,26.5,0,0,0,6.464,1.987l.435.36C946.269,667.513,948.8,658.849,947.734,650.251Z" transform="translate(-689.644 -468.242)" fill="#f0f0f0"/>
    <path id="Path_6" data-name="Path 6" d="M937.455,630.164a34.12,34.12,0,0,1,8.482,19.2,14.693,14.693,0,0,1-.167,4.6,8.427,8.427,0,0,1-2.1,3.909,17.438,17.438,0,0,0-2.707,3.24,5.16,5.16,0,0,0-.252,4.212,13.406,13.406,0,0,0,2.971,4.431,13.165,13.165,0,0,1,3.3,4.926c.068.236.431.116.363-.12-.984-3.392-4.276-5.318-5.846-8.373a5.226,5.226,0,0,1-.353-4.585,13.535,13.535,0,0,1,2.686-3.341,8.991,8.991,0,0,0,2.192-3.745,13.583,13.583,0,0,0,.343-4.577,33.1,33.1,0,0,0-2.418-10.059,34.724,34.724,0,0,0-6.244-10.006c-.163-.183-.415.1-.253.286Z" transform="translate(-694.043 -467.859)" fill="#fff"/>
    <path id="Path_7" data-name="Path 7" d="M963.04,671.658a5.119,5.119,0,0,0,3.9-5.362.191.191,0,0,0-.381.019,4.74,4.74,0,0,1-3.635,4.981C962.681,671.353,962.8,671.715,963.04,671.658Z" transform="translate(-711.25 -492.462)" fill="#fff"/>
    <path id="Path_8" data-name="Path 8" d="M948.517,703.219a9.866,9.866,0,0,1-4.406-5.682c-.069-.236-.432-.116-.363.12a10.262,10.262,0,0,0,4.6,5.9c.212.126.382-.216.172-.341Z" transform="translate(-698.338 -513.667)" fill="#fff"/>
    <path id="Path_9" data-name="Path 9" d="M945.649,650.439a2.9,2.9,0,0,1-2.746-.139c-.21-.128-.38.214-.172.341a3.247,3.247,0,0,0,3.037.161.2.2,0,0,0,.121-.241A.192.192,0,0,0,945.649,650.439Z" transform="translate(-697.59 -481.721)" fill="#fff"/>
    <path id="Path_10" data-name="Path 10" d="M860.264,676.113c.129.084.258.168.387.255a38.149,38.149,0,0,1,4.879,3.809c.119.106.239.216.355.326a40.228,40.228,0,0,1,8.737,11.96,39.06,39.06,0,0,1,2.14,5.537c.79,2.62,1.437,5.524,3,7.667a6.7,6.7,0,0,0,.522.645h14.125c.032-.016.064-.029.1-.045l.564.026c-.023-.1-.048-.2-.071-.3-.013-.058-.029-.116-.042-.174-.01-.039-.019-.077-.026-.113,0-.013-.006-.026-.01-.035-.006-.035-.016-.068-.023-.1q-.212-.865-.438-1.731s0,0,0-.007a57.446,57.446,0,0,0-4.834-12.691c-.065-.119-.129-.242-.2-.361a37.27,37.27,0,0,0-3.349-5.079,32.938,32.938,0,0,0-2.195-2.51,27.4,27.4,0,0,0-6.858-5.137c-5.066-2.675-10.932-3.7-16.346-2.066C860.538,676.026,860.4,676.068,860.264,676.113Z" transform="translate(-641.765 -498.614)" fill="#f0f0f0"/>
    <path id="Path_11" data-name="Path 11" d="M860.014,677.782a34.119,34.119,0,0,1,18.333,10.225,14.693,14.693,0,0,1,2.636,3.774,8.427,8.427,0,0,1,.68,4.383,17.441,17.441,0,0,0-.211,4.217,5.16,5.16,0,0,0,2.335,3.515,13.406,13.406,0,0,0,5.04,1.749,13.163,13.163,0,0,1,5.6,1.947c.2.147.414-.167.217-.314-2.827-2.116-6.616-1.672-9.709-3.166a5.226,5.226,0,0,1-3.043-3.448,13.531,13.531,0,0,1,.133-4.285,8.993,8.993,0,0,0-.505-4.31,13.581,13.581,0,0,0-2.482-3.861,33.1,33.1,0,0,0-7.987-6.576,34.724,34.724,0,0,0-11.01-4.23c-.24-.048-.268.333-.029.381Z" transform="translate(-641.483 -500.104)" fill="#fff"/>
    <path id="Path_12" data-name="Path 12" d="M911.714,690.712a5.119,5.119,0,0,0-.117-6.627c-.163-.184-.456.061-.293.245a4.74,4.74,0,0,1,.1,6.165C911.244,690.684,911.559,690.9,911.714,690.712Z" transform="translate(-676.323 -504.592)" fill="#fff"/>
    <path id="Path_13" data-name="Path 13" d="M912.82,729.414a9.866,9.866,0,0,1-6.939-1.884c-.2-.147-.415.167-.217.314a10.262,10.262,0,0,0,7.225,1.946C913.133,729.763,913.063,729.387,912.82,729.414Z" transform="translate(-672.48 -534.055)" fill="#fff"/>
    <path id="Path_14" data-name="Path 14" d="M878.75,685.63a2.9,2.9,0,0,1-2.276,1.542c-.245.024-.175.4.068.376a3.247,3.247,0,0,0,2.522-1.7.2.2,0,0,0-.048-.266A.192.192,0,0,0,878.75,685.63Z" transform="translate(-652.647 -505.628)" fill="#fff"/>
    <path id="Path_1" data-name="Path 1" d="M429.553,158.2,260.977,127.312a2.59,2.59,0,0,0-1.038.012,2.141,2.141,0,0,0-.851.4,2,2,0,0,0-.576.718,2.236,2.236,0,0,0-.212.969V280.434a2.236,2.236,0,0,0,.211.97,2,2,0,0,0,.576.718,2.14,2.14,0,0,0,.851.4,2.589,2.589,0,0,0,1.038.013l168.577-30.886a.8.8,0,0,0,.375-.19,1.426,1.426,0,0,0,.305-.387,2.17,2.17,0,0,0,.205-.528,2.538,2.538,0,0,0,.075-.612V159.919a2.535,2.535,0,0,0-.075-.614,2.169,2.169,0,0,0-.205-.528,1.428,1.428,0,0,0-.305-.387.8.8,0,0,0-.375-.19Z" transform="translate(-233.797 -127.266)" fill="#e4e4e4"/>
    <path id="Path_1-2" data-name="Path 1" d="M437.553,158.2,268.977,127.312a2.59,2.59,0,0,0-1.038.012,2.141,2.141,0,0,0-.851.4,2,2,0,0,0-.576.718,2.236,2.236,0,0,0-.212.969V280.434a2.236,2.236,0,0,0,.211.97,2,2,0,0,0,.576.718,2.14,2.14,0,0,0,.851.4,2.589,2.589,0,0,0,1.038.013l168.577-30.886a.8.8,0,0,0,.375-.19,1.426,1.426,0,0,0,.305-.387,2.168,2.168,0,0,0,.205-.528,2.533,2.533,0,0,0,.075-.612V159.919a2.534,2.534,0,0,0-.075-.614,2.169,2.169,0,0,0-.205-.528,1.428,1.428,0,0,0-.305-.387.8.8,0,0,0-.375-.19Z" transform="translate(-239.219 -127.266)" fill="#fff"/>
    <path id="Path_2" data-name="Path 2" d="M437.553,158.2,268.977,127.312a2.59,2.59,0,0,0-1.038.012,2.141,2.141,0,0,0-.851.4,2,2,0,0,0-.576.718,2.236,2.236,0,0,0-.212.969V280.434a2.236,2.236,0,0,0,.211.97,2,2,0,0,0,.576.718,2.14,2.14,0,0,0,.851.4,2.589,2.589,0,0,0,1.038.013l168.577-30.886a.8.8,0,0,0,.375-.19,1.426,1.426,0,0,0,.305-.387,2.168,2.168,0,0,0,.205-.528,2.533,2.533,0,0,0,.075-.612V159.919a2.534,2.534,0,0,0-.075-.614,2.169,2.169,0,0,0-.205-.528,1.428,1.428,0,0,0-.305-.387.8.8,0,0,0-.375-.19Zm.641,91.787a1.692,1.692,0,0,1-.05.41,1.45,1.45,0,0,1-.137.352.951.951,0,0,1-.2.258.532.532,0,0,1-.25.126L268.979,281.674a1.724,1.724,0,0,1-.691-.01,1.427,1.427,0,0,1-.566-.266,1.335,1.335,0,0,1-.383-.478,1.492,1.492,0,0,1-.141-.645V129.57a1.492,1.492,0,0,1,.14-.645,1.335,1.335,0,0,1,.383-.479,1.425,1.425,0,0,1,.566-.266,1.724,1.724,0,0,1,.691-.01l168.576,30.544a.531.531,0,0,1,.25.126.951.951,0,0,1,.2.258,1.447,1.447,0,0,1,.137.352,1.691,1.691,0,0,1,.05.41v90.125Z" transform="translate(-239.219 -127.266)" fill="#cacaca"/>
    <path id="Path_3" data-name="Path 3" d="M182.271,259.468a7.047,7.047,0,0,1,.638-2.987,6.3,6.3,0,0,1,1.731-2.232,6.473,6.473,0,0,1,2.542-1.261,7.489,7.489,0,0,1,3.071-.092,8.867,8.867,0,0,1,3.026,1.123,9.75,9.75,0,0,1,2.438,2.058,9.55,9.55,0,0,1,1.627,2.7,8.4,8.4,0,0,1,.594,3.067,7.07,7.07,0,0,1-.594,2.888,6.314,6.314,0,0,1-1.628,2.206,6.425,6.425,0,0,1-2.438,1.319,7.368,7.368,0,0,1-3.026.206h0a8.761,8.761,0,0,1-3.069-1.026,9.728,9.728,0,0,1-2.541-2.032,9.6,9.6,0,0,1-1.732-2.756A8.441,8.441,0,0,1,182.271,259.468Z" transform="translate(-182.27 -212.329)" fill="#e4e4e4"/>
    <path id="Path_3-2" data-name="Path 3" d="M182.271,356.468a7.047,7.047,0,0,1,.638-2.987,6.3,6.3,0,0,1,1.731-2.232,6.473,6.473,0,0,1,2.542-1.261,7.488,7.488,0,0,1,3.071-.092,8.867,8.867,0,0,1,3.026,1.123,9.75,9.75,0,0,1,2.438,2.058,9.549,9.549,0,0,1,1.628,2.7,8.4,8.4,0,0,1,.594,3.067,7.07,7.07,0,0,1-.594,2.888,6.313,6.313,0,0,1-1.628,2.206,6.425,6.425,0,0,1-2.438,1.319,7.366,7.366,0,0,1-3.026.206h0a8.761,8.761,0,0,1-3.069-1.026,9.728,9.728,0,0,1-2.541-2.032,9.6,9.6,0,0,1-1.732-2.756A8.441,8.441,0,0,1,182.271,356.468Z" transform="translate(-182.27 -278.069)" fill="#e4e4e4"/>
    <path id="Path_3-3" data-name="Path 3" d="M182.271,453.468a7.047,7.047,0,0,1,.638-2.987,6.3,6.3,0,0,1,1.731-2.232,6.474,6.474,0,0,1,2.542-1.261,7.489,7.489,0,0,1,3.071-.092,8.866,8.866,0,0,1,3.026,1.123,9.751,9.751,0,0,1,2.438,2.058,9.549,9.549,0,0,1,1.627,2.7,8.4,8.4,0,0,1,.594,3.067,7.07,7.07,0,0,1-.594,2.888,6.314,6.314,0,0,1-1.627,2.206,6.425,6.425,0,0,1-2.438,1.319,7.367,7.367,0,0,1-3.026.206h0a8.762,8.762,0,0,1-3.069-1.026,9.727,9.727,0,0,1-2.541-2.032,9.6,9.6,0,0,1-1.732-2.756A8.441,8.441,0,0,1,182.271,453.468Z" transform="translate(-182.27 -343.808)" fill="#e4e4e4"/>
    <path id="Path_3-4" data-name="Path 3" d="M188.271,259.468a7.047,7.047,0,0,1,.638-2.987,6.3,6.3,0,0,1,1.731-2.232,6.473,6.473,0,0,1,2.542-1.261,7.489,7.489,0,0,1,3.071-.092,8.867,8.867,0,0,1,3.026,1.123,9.75,9.75,0,0,1,2.438,2.058,9.549,9.549,0,0,1,1.627,2.7,8.406,8.406,0,0,1,.594,3.067,7.07,7.07,0,0,1-.594,2.888,6.314,6.314,0,0,1-1.627,2.206,6.425,6.425,0,0,1-2.438,1.319,7.368,7.368,0,0,1-3.026.206h0a8.761,8.761,0,0,1-3.069-1.026,9.727,9.727,0,0,1-2.541-2.032,9.6,9.6,0,0,1-1.732-2.756A8.441,8.441,0,0,1,188.271,259.468Z" transform="translate(-186.337 -212.329)" fill="#001736"/>
    <path id="Path_4" data-name="Path 4" d="M188.271,354.727a7.369,7.369,0,0,1,.638-3.035,6.993,6.993,0,0,1,1.731-2.359,7.089,7.089,0,0,1,2.542-1.45,7.6,7.6,0,0,1,3.071-.319,8.3,8.3,0,0,1,3.026.9,8.758,8.758,0,0,1,2.438,1.878,8.658,8.658,0,0,1,1.627,2.578,8.066,8.066,0,0,1,.593,3.027,7.38,7.38,0,0,1-.594,2.933,7.015,7.015,0,0,1-4.066,3.825,7.539,7.539,0,0,1-3.026.429h0a8.253,8.253,0,0,1-3.069-.8,8.77,8.77,0,0,1-4.272-4.475A8.089,8.089,0,0,1,188.271,354.727Z" transform="translate(-186.337 -276.541)" fill="#001736"/>
    <path id="Path_5-2" data-name="Path 5" d="M188.271,449.9a7.706,7.706,0,0,1,2.37-5.569,7.869,7.869,0,0,1,12.7,2.65,7.77,7.77,0,0,1-7.09,10.733h0a7.884,7.884,0,0,1-7.341-4.729A7.744,7.744,0,0,1,188.271,449.9Z" transform="translate(-186.337 -340.671)" fill="#001736"/>
    <path id="Path_6-2" data-name="Path 6" d="M201.728,267.946l2.34.36V266a.694.694,0,0,1,.06-.29.615.615,0,0,1,.165-.218.631.631,0,0,1,.246-.126.731.731,0,0,1,.3-.013.874.874,0,0,1,.3.108.97.97,0,0,1,.246.2.953.953,0,0,1,.166.27.835.835,0,0,1,.062.308v2.3l2.3.352a.851.851,0,0,1,.3.105.95.95,0,0,1,.4.467.829.829,0,0,1,.06.305.7.7,0,0,1-.06.287.618.618,0,0,1-.161.217.625.625,0,0,1-.241.127.716.716,0,0,1-.3.015l-2.3-.344v2.3a.7.7,0,0,1-.061.29.629.629,0,0,1-.165.22.642.642,0,0,1-.245.129.733.733,0,0,1-.3.017.863.863,0,0,1-.3-.1.949.949,0,0,1-.246-.2.935.935,0,0,1-.166-.268.826.826,0,0,1-.06-.308v-2.307l-2.34-.351a.885.885,0,0,1-.305-.107.975.975,0,0,1-.25-.2.95.95,0,0,1-.169-.27.832.832,0,0,1-.062-.312.7.7,0,0,1,.062-.292.626.626,0,0,1,.169-.22.646.646,0,0,1,.25-.129A.75.75,0,0,1,201.728,267.946Z" transform="translate(-194.925 -220.842)" fill="#fff"/>
    <path id="Path_7-2" data-name="Path 7" d="M208.477,367.288l6.5.471H215l-3.048-5.533a.244.244,0,0,0-.079-.086.239.239,0,0,0-.052-.026.227.227,0,0,0-.057-.013.212.212,0,0,0-.057,0,.2.2,0,0,0-.052.017.19.19,0,0,0-.079.073L209.5,365.6l-.1.164Z" transform="translate(-200.031 -286.419)" fill="#fff"/>
    <path id="Path_8-2" data-name="Path 8" d="M196.968,369.6l5.734.416-1.1-1.668-.079-.121-1.441-2.188a.329.329,0,0,0-.094-.084.32.32,0,0,0-.056-.026.31.31,0,0,0-.062-.015.3.3,0,0,0-.062,0,.282.282,0,0,0-.059.01.267.267,0,0,0-.054.023.261.261,0,0,0-.048.034l0,.006-.006.006,0,.006,0,.006Z" transform="translate(-192.231 -289.004)" fill="#fff"/>
    <path id="Ellipse_1" data-name="Ellipse 1" d="M208.367,359.656a1.036,1.036,0,0,1,.379.108,1.1,1.1,0,0,1,.309.234,1.088,1.088,0,0,1,.208.325,1,1,0,0,1,.076.382.911.911,0,0,1-.076.369.86.86,0,0,1-.208.29.873.873,0,0,1-.309.181.941.941,0,0,1-.379.045,1.036,1.036,0,0,1-.38-.107,1.1,1.1,0,0,1-.311-.233,1.088,1.088,0,0,1-.21-.326,1,1,0,0,1-.077-.384.911.911,0,0,1,.077-.371.861.861,0,0,1,.21-.29.874.874,0,0,1,.311-.18A.942.942,0,0,1,208.367,359.656Z" transform="translate(-199.295 -284.76)" fill="#fff"/>
    <path id="Rectangle_2" data-name="Rectangle 2" d="M428.034,299.709l64.352-61.057.276.483-64.225,61.09Z" transform="translate(-348.831 -202.755)" fill="#e6e6e6"/>
    <path id="Rectangle_3" data-name="Rectangle 3" d="M428.066,212.359l.4-.483,64.208,66.654-.277.459Z" transform="translate(-348.853 -184.608)" fill="#e6e6e6"/>
    <path id="Path_9-2" data-name="Path 9" d="M489.471,217.773l-62.553-8.594a1.923,1.923,0,0,0-.862.073,1.853,1.853,0,0,0-.707.427,2.06,2.06,0,0,0-.479.709,2.448,2.448,0,0,0-.176.928v67.336a2.561,2.561,0,0,0,.176.941,2.3,2.3,0,0,0,.478.75,2.069,2.069,0,0,0,.707.483,1.983,1.983,0,0,0,.862.144l62.554-3.445a1.268,1.268,0,0,0,.595-.193,1.715,1.715,0,0,0,.483-.458,2.285,2.285,0,0,0,.325-.656,2.638,2.638,0,0,0,.12-.788V219.992a2.739,2.739,0,0,0-.12-.8,2.516,2.516,0,0,0-.325-.683,1.939,1.939,0,0,0-.483-.5A1.37,1.37,0,0,0,489.471,217.773Zm-62.553,62.5a1.416,1.416,0,0,1-.615-.1,1.478,1.478,0,0,1-.5-.346,1.646,1.646,0,0,1-.341-.537,1.83,1.83,0,0,1-.126-.671V211.4a1.75,1.75,0,0,1,.126-.661,1.472,1.472,0,0,1,.341-.507,1.325,1.325,0,0,1,.5-.3,1.373,1.373,0,0,1,.615-.054l62.553,8.477a.978.978,0,0,1,.425.171,1.384,1.384,0,0,1,.346.354,1.8,1.8,0,0,1,.233.488,1.958,1.958,0,0,1,.086.571v55.517a1.887,1.887,0,0,1-.086.564,1.633,1.633,0,0,1-.233.469,1.225,1.225,0,0,1-.346.327.905.905,0,0,1-.425.136Z" transform="translate(-346.567 -182.768)" fill="#e6e6e6"/>
    <g id="b12ed9b2-cc32-4c4f-a9d5-2d1deb4d0e3e" transform="translate(77.11 97.238)">
      <path id="Path_14-2" data-name="Path 14" d="M422.708,437.068a.954.954,0,0,0-.46.179,1.448,1.448,0,0,0-.373.4,2.068,2.068,0,0,0-.249.567,2.432,2.432,0,0,0-.086.671,2.26,2.26,0,0,0,.1.64,1.7,1.7,0,0,0,.251.509,1.133,1.133,0,0,0,.37.33.838.838,0,0,0,.451.1l109.51-9.068a.375.375,0,0,0,.231-.106.877.877,0,0,0,.19-.267,1.7,1.7,0,0,0,.129-.387,2.356,2.356,0,0,0,.05-.47,2.28,2.28,0,0,0-.043-.466,1.551,1.551,0,0,0-.124-.377.754.754,0,0,0-.185-.251.337.337,0,0,0-.23-.085h-.019Z" transform="translate(-421.539 -428.992)" fill="#e6e6e6"/>
    </g>
    <g id="e10bb4bc-6df1-41b6-ac46-84090840b498" transform="translate(77.11 104.543)">
      <path id="Path_15" data-name="Path 15" d="M422.708,462.748a.98.98,0,0,0-.46.191,1.509,1.509,0,0,0-.373.412,2.131,2.131,0,0,0-.249.573,2.458,2.458,0,0,0-.086.675,2.232,2.232,0,0,0,.1.638,1.646,1.646,0,0,0,.251.5,1.089,1.089,0,0,0,.369.319.824.824,0,0,0,.451.089l109.51-12.081a.387.387,0,0,0,.231-.112.913.913,0,0,0,.19-.272,1.748,1.748,0,0,0,.129-.392,2.371,2.371,0,0,0,.05-.471,2.258,2.258,0,0,0-.043-.465,1.51,1.51,0,0,0-.124-.373.724.724,0,0,0-.186-.245.329.329,0,0,0-.23-.079h-.019Z" transform="translate(-421.539 -451.657)" fill="#e6e6e6"/>
    </g>
    <g id="e3c0a870-6a35-4470-a43f-0902a465f5fb" transform="translate(77.11 111.73)">
      <path id="Path_16" data-name="Path 16" d="M422.708,488.014a1.009,1.009,0,0,0-.46.2,1.57,1.57,0,0,0-.373.422,2.2,2.2,0,0,0-.249.58,2.484,2.484,0,0,0-.086.677,2.205,2.205,0,0,0,.1.635,1.593,1.593,0,0,0,.251.5,1.047,1.047,0,0,0,.369.309.812.812,0,0,0,.451.077l109.51-15.045a.4.4,0,0,0,.231-.119.945.945,0,0,0,.19-.277,1.785,1.785,0,0,0,.129-.4,2.39,2.39,0,0,0,.05-.473,2.245,2.245,0,0,0-.043-.463,1.472,1.472,0,0,0-.124-.37.7.7,0,0,0-.186-.24.322.322,0,0,0-.23-.073h-.019Z" transform="translate(-421.54 -473.958)" fill="#e6e6e6"/>
    </g>
    <path id="Path_17" data-name="Path 17" d="M207.695,455.908l-6.251-.075a.89.89,0,0,0-.307.044.88.88,0,0,0-.265.141.864.864,0,0,0-.2.221.855.855,0,0,0-.114.285.832.832,0,0,0,.018.362.842.842,0,0,0,.068.17.857.857,0,0,0,.239.281.868.868,0,0,0,.517.176l1.88.017a.455.455,0,0,1,.416.276.445.445,0,0,1,.035.174v3.688a.865.865,0,0,0,.7.867.842.842,0,0,0,.9-.474.833.833,0,0,0,.078-.351v-3.719a.442.442,0,0,1,.442-.442h0l1.8.014a.847.847,0,0,0,.858-.681.838.838,0,0,0-.816-.975Z" transform="translate(-194.654 -349.944)" fill="#fff"/>
    <path id="Ellipse_2" data-name="Ellipse 2" d="M220.991,471.484a.83.83,0,1,1-.764.507.83.83,0,0,1,.764-.507Z" transform="translate(-207.95 -360.551)" fill="#fff"/>
    <path id="Path_15-2" data-name="Path 15" d="M659.351,309.681a4.313,4.313,0,0,1-.14.665l13.031,15.6,4.867-.839,2.226,7.18-8.472,2.322a3.279,3.279,0,0,1-3.661-1.445l-12.111-19.7a4.3,4.3,0,1,1,4.259-3.782Z" transform="translate(-499.79 -247.624)" fill="#ffb6b6"/>
    <path id="Path_16-2" data-name="Path 16" d="M718.6,362.236a1.843,1.843,0,0,1,1.278-.852l9.143-1.458a5.123,5.123,0,0,1,3.11,9.762l-8.353,4.061a1.845,1.845,0,0,1-2.566-1.1l-2.8-8.885A1.843,1.843,0,0,1,718.6,362.236Z" transform="translate(-545.566 -284.781)" fill="#3f3d56"/>
    <path id="Path_17-2" data-name="Path 17" d="M526.226,600.47h-3.951L520.4,585.23h5.831Z" transform="translate(-352.685 -396.626)" fill="#ffb6b6"/>
    <path id="Path_18" data-name="Path 18" d="M697.093,760.9h-12.74v-.161a4.959,4.959,0,0,1,4.958-4.958h7.782Z" transform="translate(-522.545 -553.227)" fill="#2f2e41"/>
    <path id="Path_19" data-name="Path 19" d="M654.226,600.47h-3.951l-1.88-15.24h5.831Z" transform="translate(-439.434 -396.626)" fill="#ffb6b6"/>
    <path id="Path_20" data-name="Path 20" d="M825.093,760.9h-12.74v-.161a4.959,4.959,0,0,1,4.958-4.958h7.782Z" transform="translate(-609.294 -553.227)" fill="#2f2e41"/>
    <path id="Path_21" data-name="Path 21" d="M705.713,461.33l17.121-4.948c6.237,4.424,10.543,13.291,9.149,24.763-2.248,18.488,10.764,42.26,16.375,66.346l-9.7.3-21.247-50.848L704.95,548.856l-8.668.272,5.8-71.47Z" transform="translate(-530.63 -350.317)" fill="#2f2e41"/>
    <circle id="Ellipse_4" data-name="Ellipse 4" cx="8.857" cy="8.857" r="8.857" transform="translate(173.85 48.338)" fill="#ffb6b6"/>
    <path id="Path_22" data-name="Path 22" d="M716.819,374.036c-1.958-3.436-2.925-7.61-1.221-11.179a17.77,17.77,0,0,1,2.211-2.533l6.843-10.2,7.727-1.243c6.687,5.608.975,24.769,6.453,37.338l-22.881,12.246C717.587,392.215,719.794,379.258,716.819,374.036Z" transform="translate(-543.125 -277.458)" fill="#3f3d56"/>
    <path id="Path_23" data-name="Path 23" d="M720.941,277.3s.6-1.111,4.19.322c1.256.5,1.846.386,1.927,1.478a20.826,20.826,0,0,0,4.317,11.291l.027.035,1.795-1.638,2.308,1.843,9.744.2s1.538-7.575-3.59-16.174-15.641-3.89-15.641-3.89C718.838,271.182,720.941,277.3,720.941,277.3Z" transform="translate(-547.147 -223.652)" fill="#2f2e41"/>
    <path id="Path_9-3" data-name="Path 9" d="M515.162,240.494,452.609,231.9a1.923,1.923,0,0,0-.862.073,1.853,1.853,0,0,0-.707.427,2.06,2.06,0,0,0-.479.709,2.449,2.449,0,0,0-.176.928v67.336a2.562,2.562,0,0,0,.176.941,2.3,2.3,0,0,0,.478.75,2.07,2.07,0,0,0,.707.483,1.983,1.983,0,0,0,.862.144l62.554-3.445a1.268,1.268,0,0,0,.595-.193,1.717,1.717,0,0,0,.483-.458,2.286,2.286,0,0,0,.326-.656,2.638,2.638,0,0,0,.12-.788V242.713a2.736,2.736,0,0,0-.12-.8,2.517,2.517,0,0,0-.326-.683,1.939,1.939,0,0,0-.483-.5A1.371,1.371,0,0,0,515.162,240.494Z" transform="translate(-363.979 -198.166)" fill="#001736"/>
    <path id="Path_9-4" data-name="Path 9" d="M515.162,240.494,452.609,231.9a1.923,1.923,0,0,0-.862.073,1.853,1.853,0,0,0-.707.427,2.06,2.06,0,0,0-.479.709,2.449,2.449,0,0,0-.176.928v67.336a2.562,2.562,0,0,0,.176.941,2.3,2.3,0,0,0,.478.75,2.07,2.07,0,0,0,.707.483,1.983,1.983,0,0,0,.862.144l62.554-3.445a1.268,1.268,0,0,0,.595-.193,1.717,1.717,0,0,0,.483-.458,2.286,2.286,0,0,0,.326-.656,2.638,2.638,0,0,0,.12-.788V242.713a2.736,2.736,0,0,0-.12-.8,2.517,2.517,0,0,0-.326-.683,1.939,1.939,0,0,0-.483-.5A1.371,1.371,0,0,0,515.162,240.494Z" transform="translate(-363.979 -198.166)" opacity="0.2"/>
    <path id="Path_9-5" data-name="Path 9" d="M523.162,240.494,460.609,231.9a1.922,1.922,0,0,0-.862.073,1.853,1.853,0,0,0-.707.427,2.061,2.061,0,0,0-.479.709,2.45,2.45,0,0,0-.176.928v67.336a2.561,2.561,0,0,0,.176.941,2.3,2.3,0,0,0,.478.75,2.071,2.071,0,0,0,.707.483,1.983,1.983,0,0,0,.862.144l62.554-3.445a1.268,1.268,0,0,0,.595-.193,1.716,1.716,0,0,0,.483-.458,2.283,2.283,0,0,0,.326-.656,2.639,2.639,0,0,0,.12-.788V242.713a2.737,2.737,0,0,0-.12-.8,2.517,2.517,0,0,0-.326-.683,1.939,1.939,0,0,0-.483-.5A1.37,1.37,0,0,0,523.162,240.494Z" transform="translate(-369.401 -198.166)" fill="#00285d"/>
    <path id="Path_24" data-name="Path 24" d="M643.568,412.857a4.313,4.313,0,0,1,.473.488l20.224-2.067,2.029-4.5,7.2,2.174-2.817,8.32a3.279,3.279,0,0,1-3.247,2.225l-23.107-.99a4.3,4.3,0,1,1-.751-5.646Z" transform="translate(-490.075 -316.697)" fill="#ffb6b6"/>
    <path id="Path_25" data-name="Path 25" d="M721.2,389.132a1.843,1.843,0,0,1,.009-1.536l3.908-8.393a5.123,5.123,0,1,1,9.831,2.886l-1.309,9.2a1.845,1.845,0,0,1-2.351,1.508l-8.931-2.651a1.842,1.842,0,0,1-1.157-1.011Z" transform="translate(-547.403 -295.516)" fill="#3f3d56"/>
    <path id="Path_26" data-name="Path 26" d="M757.839,771.38H635.052a.322.322,0,1,1,0-.645H757.839a.322.322,0,0,1,0,.645Z" transform="translate(-488.914 -563.362)" fill="#cacaca"/>
  </g>
</svg>
